<svg xmlns="http://www.w3.org/2000/svg" width="400" height="400" viewBox="0 0 400 400">
<g>

<path d="M 105.51 281.02 C105.01,280.20 118.26,256.41 135.92,226.41 C137.89,223.07 146.93,207.44 156.00,191.68 L 172.50 163.03 L 188.84 163.02 L 205.19 163.00 L 201.34 169.87 C199.23,173.64 183.78,200.42 167.02,229.37 L 136.54 282.00 L 121.33 282.00 C112.43,282.00 105.87,281.59 105.51,281.02 ZM 146.57 281.12 C146.27,280.63 148.20,276.47 150.85,271.87 C153.50,267.27 169.61,239.43 186.65,210.00 C203.69,180.57 224.06,145.36 231.92,131.75 L 246.21 107.00 L 262.69 107.00 L 279.16 107.00 L 277.19 110.25 C276.11,112.04 269.40,123.62 262.28,136.00 C247.33,161.97 203.10,238.44 182.31,274.25 L 177.81 282.00 L 162.46 282.00 C154.02,282.00 146.87,281.60 146.57,281.12 ZM 187.58 281.14 C187.37,280.78 190.44,274.87 194.42,268.00 C198.40,261.12 212.58,236.60 225.93,213.50 C239.27,190.40 254.97,163.29 260.80,153.25 L 271.42 135.00 L 287.74 135.00 C302.99,135.00 304.01,135.12 303.13,136.75 C302.61,137.71 296.84,147.73 290.30,159.00 C276.29,183.16 243.86,239.17 229.50,264.00 L 219.38 281.50 L 203.68 281.64 C195.05,281.72 187.80,281.49 187.58,281.14 Z" fill="rgb(253,253,253)" data-index="1" style="visibility: visible; opacity: 1;"></path>
</g>
</svg>